<?xml version="1.0" encoding="UTF-8" standalone="no"?>
<!-- Generator: Adobe Illustrator 24.0.2, SVG Export Plug-In . SVG Version: 6.00 Build 0)  -->

<svg
   version="1.1"
   id="Calque_1"
   x="0px"
   y="0px"
   width="64"
   height="64"
   viewBox="0 0 64.000003 63.999993"
   xml:space="preserve"
   xmlns:xlink="http://www.w3.org/1999/xlink"
   xmlns="http://www.w3.org/2000/svg"
   xmlns:svg="http://www.w3.org/2000/svg"
   xmlns:rdf="http://www.w3.org/1999/02/22-rdf-syntax-ns#"
   xmlns:cc="http://creativecommons.org/ns#"
   xmlns:dc="http://purl.org/dc/elements/1.1/"><metadata
   id="metadata118"><rdf:RDF><cc:Work
       rdf:about=""><dc:format>image/svg+xml</dc:format><dc:type
         rdf:resource="http://purl.org/dc/dcmitype/StillImage" /></cc:Work></rdf:RDF></metadata><defs
   id="defs72"><rect
     x="1150.3843"
     y="2292.8162"
     width="2107.8879"
     height="701.88715"
     id="rect141823" /><rect
     x="411.88269"
     y="1261.6108"
     width="815.34668"
     height="181.92911"
     id="rect66775" /><rect
     x="253.02008"
     y="1213.0352"
     width="2209.7197"
     height="583.65765"
     id="rect60279" /><rect
     x="1150.3843"
     y="2292.8162"
     width="2551.0081"
     height="701.39136"
     id="rect141823-1" /><linearGradient
     y2="62.288601"
     x2="248.6918"
     y1="231.7114"
     x1="346.50821"
     gradientUnits="userSpaceOnUse"
     id="SVGID_1_"
     gradientTransform="matrix(0.32719834,0,0,0.32719834,-65.374228,-16.098158)">
		<stop
   id="stop4"
   style="stop-color:#8F2A85"
   offset="0" />
		<stop
   id="stop6"
   style="stop-color:#2570B6"
   offset="1" />
	</linearGradient><linearGradient
     xlink:href="#SVGID_1_"
     id="linearGradient2"
     x1="130.07167"
     y1="61.910587"
     x2="82.588333"
     y2="-1.3455443"
     gradientUnits="userSpaceOnUse"
     gradientTransform="translate(-75.575515,1.7093111)" /></defs>
<style
   type="text/css"
   id="style2">
	.st0{fill:url(#SVGID_1_);}
	.st1{fill:#FFFFFF;}
	.st2{display:none;fill:none;stroke:#E62054;stroke-width:7.5;stroke-miterlimit:10;}
</style>

<rect
   style="fill:url(#linearGradient2);stroke-width:0.150234"
   id="rect1"
   width="63.999996"
   height="63.999996"
   x="0"
   y="0"
   ry="8.029933" /><text
   y="-2248.8188"
   style="font-style:normal;font-weight:normal;font-size:40px;line-height:125%;font-family:Sans;letter-spacing:0px;word-spacing:0px;white-space:pre;shape-inside:url(#rect60279);display:inline;fill:#000000;fill-opacity:1;stroke:none;stroke-width:1px;stroke-linecap:butt;stroke-linejoin:miter;stroke-opacity:1"
   id="text60277"
   xml:space="preserve"
   transform="matrix(0.99999889,0,0,0.99999889,-164.71991,-165.18467)" /><text
   y="-4324.1934"
   x="304.06815"
   style="font-style:normal;font-weight:normal;font-size:89.8058px;line-height:200%;font-family:Sans;letter-spacing:0px;word-spacing:0px;white-space:pre;shape-inside:url(#rect66775);display:inline;fill:#000000;fill-opacity:1;stroke:none;stroke-width:2.24515px;stroke-linecap:butt;stroke-linejoin:miter;stroke-opacity:1"
   id="text66773"
   xml:space="preserve"
   transform="matrix(0.99999889,0,0,0.99999889,-164.71991,-165.18467)" /><text
   y="-2248.5173"
   x="-121.66869"
   style="font-style:normal;font-weight:normal;font-size:40px;line-height:0;font-family:Sans;letter-spacing:0px;word-spacing:0px;white-space:pre;shape-inside:url(#rect141823);display:inline;fill:#000000;fill-opacity:1;stroke:none;stroke-width:1px;stroke-linecap:butt;stroke-linejoin:miter;stroke-opacity:1"
   id="text141821"
   xml:space="preserve"
   transform="matrix(0.99999889,0,0,0.99999889,-164.71991,-165.18467)" /><text
   y="-3181.1731"
   x="-158.83984"
   style="font-style:normal;font-weight:normal;font-size:40px;line-height:0;font-family:Sans;letter-spacing:0px;word-spacing:0px;white-space:pre;shape-inside:url(#rect141823-1);display:inline;fill:#000000;fill-opacity:1;stroke:none;stroke-width:1px;stroke-linecap:butt;stroke-linejoin:miter;stroke-opacity:1"
   id="text141821-0"
   xml:space="preserve"
   transform="matrix(0.99999889,0,0,0.99999889,-164.71991,-165.18467)" /><path
   style="display:none;fill:none;stroke:#e62054;stroke-width:49.7451;stroke-miterlimit:10"
   id="path49"
   d="m 1065.871,503.42011 c -19.2347,0 -35.1531,-15.91842 -35.1531,-35.15318 V 334.28687 H 870.87032 c -19.23476,0 -35.15319,-15.91842 -35.15319,-35.15318 0,-19.23476 15.91843,-35.15319 35.15319,-35.15319 H 1065.871 c 19.2348,0 35.1532,15.91843 35.1532,35.15319 v 169.13324 c 0.6633,19.23476 -15.2551,35.15318 -35.1532,35.15318 z"
   class="st2" /><path
   style="display:none;fill:none;stroke:#e62054;stroke-width:49.7451;stroke-miterlimit:10"
   id="path53"
   d="M 426.48102,1032.7077 H 231.48034 c -19.23476,0 -35.15318,-15.9185 -35.15318,-35.15322 V 828.42124 c 0,-19.23476 15.91842,-35.15318 35.15318,-35.15318 19.23476,0 35.15318,15.91842 35.15318,35.15318 v 133.31679 h 159.8475 c 19.23476,0 35.15318,15.91842 35.15318,35.15318 0,19.23479 -15.25515,35.81649 -35.15318,35.81649 z"
   class="st2" /><path
   style="display:none;fill:none;stroke:#e62054;stroke-width:49.7451;stroke-miterlimit:10"
   id="path57"
   d="m 231.48034,503.42011 c -19.23476,0 -35.15318,-15.91842 -35.15318,-35.15318 V 299.13369 c 0,-19.23476 15.91842,-35.15319 35.15318,-35.15319 h 195.00068 c 19.23476,0 35.15318,15.91843 35.15318,35.15319 0,19.23476 -15.91842,35.15318 -35.15318,35.15318 h -159.8475 v 133.31679 c 0.66327,19.89803 -15.25515,35.81645 -35.15318,35.81645 z"
   class="st2" /><path
   style="display:none;fill:none;stroke:#e62054;stroke-width:49.7451;stroke-miterlimit:10"
   id="path61"
   d="M 1065.871,1032.7077 H 870.87032 c -19.23476,0 -35.15319,-15.9185 -35.15319,-35.15322 0,-19.23476 15.91843,-35.15318 35.15319,-35.15318 H 1030.7179 V 829.08451 c 0,-19.23476 15.9184,-35.15319 35.1531,-35.15319 19.2348,0 35.1532,15.91843 35.1532,35.15319 v 169.13324 c 0.6633,18.57145 -15.2551,34.48995 -35.1532,34.48995 z"
   class="st2" /><g
   id="g2"
   transform="translate(-0.061045,-0.40008294)"><path
     style="fill:#ffffff;stroke-width:0.408756"
     id="path11"
     d="m 14.300635,26.218791 c -0.04088,0 -0.08175,0 -0.122627,0 l -2.248154,-0.654007 c -0.163502,-0.04088 -0.28613,-0.204378 -0.28613,-0.408756 v -3.024789 c 0,-0.122627 0.08175,-0.245255 0.163504,-0.327005 0.122627,-0.08175 0.245252,-0.08175 0.367878,-0.04088 l 2.248155,0.817511 c 0.163503,0.04088 0.286129,0.204377 0.286129,0.367878 v 2.861288 c 0,0.122628 -0.04088,0.245254 -0.163502,0.327004 -0.08175,0.04088 -0.163502,0.08175 -0.245253,0.08175 z m -1.839399,-1.389767 1.430643,0.408754 v -2.043774 l -1.430643,-0.531383 z"
     class="st1" /><path
     style="fill:#ffffff;stroke-width:0.408756"
     id="path13"
     d="m 14.300635,31.941367 c -0.04088,0 -0.04088,0 -0.08175,0 L 11.970731,31.45086 c -0.204378,-0.04088 -0.327006,-0.204378 -0.327006,-0.408755 v -3.024789 c 0,-0.122628 0.04088,-0.245254 0.163504,-0.327006 0.08175,-0.08175 0.245252,-0.122626 0.367878,-0.08175 l 2.248155,0.572256 c 0.163503,0.04088 0.327005,0.204378 0.327005,0.408756 v 2.943039 c 0,0.122627 -0.04088,0.245253 -0.163502,0.327004 -0.122627,0.04087 -0.204378,0.08175 -0.286129,0.08175 z m -1.839399,-1.226267 1.430643,0.327005 v -2.125528 l -1.430643,-0.367879 z"
     class="st1" /><path
     style="fill:#ffffff;stroke-width:0.408756"
     id="path15"
     d="m 18.020307,32.799752 c -0.04088,0 -0.08175,0 -0.08175,0 L 15.690405,32.268371 C 15.486027,32.227491 15.3634,32.063993 15.3634,31.859615 v -2.983914 c 0,-0.122628 0.04088,-0.245253 0.163503,-0.327003 0.122627,-0.08175 0.245253,-0.122628 0.367879,-0.08175 l 2.248155,0.572257 c 0.163502,0.04088 0.327004,0.204378 0.327004,0.408756 v 2.943038 c 0,0.122627 -0.04088,0.245253 -0.163502,0.327005 -0.122627,0.04088 -0.204378,0.08175 -0.28613,0.08175 z m -1.839398,-1.267141 1.430643,0.327004 v -2.125528 l -1.430643,-0.36788 z"
     class="st1" /><path
     style="fill:#ffffff;stroke-width:0.408756"
     id="path17"
     d="m 23.211502,31.491736 c -0.04088,0 -0.08175,0 -0.122628,0 l -2.65691,-0.899263 c -0.163502,-0.04088 -0.245252,-0.204376 -0.245252,-0.327003 v -1.880276 c 0,-0.122627 0.04088,-0.245252 0.163501,-0.286128 0.08175,-0.08175 0.204379,-0.08175 0.327005,-0.04088 l 2.656909,0.981013 c 0.122627,0.04088 0.245254,0.204377 0.245254,0.327003 v 1.798524 c 0,0.122627 -0.04088,0.204379 -0.163502,0.286129 -0.04088,0 -0.122628,0.04088 -0.204377,0.04088 z m -2.289031,-1.512395 1.962025,0.654008 v -1.062764 l -1.962025,-0.735759 z"
     class="st1" /><path
     style="fill:#ffffff;stroke-width:0.408756"
     id="path19"
     d="m 24.969149,35.497538 c -0.04087,0 -0.04087,0 -0.08175,0 l -2.57516,-0.613133 C 22.148738,34.843525 22.026112,34.720903 22.026112,34.5574 v -1.92115 c 0,-0.122627 0.04088,-0.204377 0.122628,-0.286129 0.08175,-0.08175 0.204377,-0.08175 0.327004,-0.04088 l 2.575158,0.694886 c 0.163501,0.04088 0.245253,0.163501 0.245253,0.327003 v 1.839399 c 0,0.122628 -0.04088,0.204378 -0.122628,0.28613 -0.04088,0 -0.122626,0.04088 -0.204377,0.04088 z m -2.207279,-1.267142 1.880275,0.449631 V 33.576388 L 22.76187,33.085882 Z"
     class="st1" /><path
     style="fill:#ffffff;stroke-width:0.408756"
     id="path21"
     d="m 18.020307,27.363306 c -0.04088,0 -0.08175,0 -0.122626,0 l -2.28903,-0.613133 c -0.163502,-0.04088 -0.28613,-0.204377 -0.28613,-0.408754 v -3.02479 c 0,-0.122627 0.08175,-0.245253 0.163504,-0.327005 0.122626,-0.08175 0.245252,-0.08175 0.367878,-0.04088 l 2.28903,0.817512 c 0.163504,0.04088 0.286129,0.204377 0.286129,0.367879 v 2.820412 c 0,0.122628 -0.04088,0.245254 -0.163501,0.327005 -0.08175,0.04087 -0.163504,0.08175 -0.245255,0.08175 z m -1.880274,-1.348892 1.471519,0.408755 v -2.002901 l -1.471519,-0.531381 z"
     class="st1" /><path
     style="fill:#ffffff;stroke-width:0.408756"
     id="path23"
     d="m 28.198316,35.906292 c -0.531382,0 -0.940138,-0.490506 -0.940138,-1.062763 0,-0.572257 0.408756,-1.062763 0.940138,-1.062763 0.531382,0 0.940137,0.490506 0.940137,1.062763 0,0.572257 -0.408755,1.062763 -0.940137,1.062763 z m 0,-1.553269 c -0.204378,0 -0.36788,0.204377 -0.36788,0.490506 0,0.286129 0.163502,0.490508 0.36788,0.490508 0.204378,0 0.36788,-0.204379 0.36788,-0.490508 0,-0.286129 -0.163502,-0.490506 -0.36788,-0.490506 z"
     class="st1" /><path
     style="fill:#ffffff;stroke-width:0.408756"
     id="path25"
     d="m 49.821474,26.218791 c -0.08175,0 -0.163503,-0.04088 -0.245252,-0.08175 -0.122628,-0.08175 -0.163504,-0.204376 -0.163504,-0.327003 V 22.94875 c 0,-0.163502 0.122626,-0.327003 0.28613,-0.367878 L 51.947,21.76336 c 0.122628,-0.04088 0.245254,-0.04088 0.36788,0.04088 0.122627,0.08175 0.163504,0.204378 0.163504,0.327004 v 3.024789 c 0,0.163503 -0.122627,0.327004 -0.28613,0.408756 L 49.9441,26.218797 c -0.04088,0 -0.08175,0 -0.122626,0 z m 0.408757,-2.983913 v 2.043776 l 1.43064,-0.408755 v -2.125527 z"
     class="st1" /><path
     style="fill:#ffffff;stroke-width:0.408756"
     id="path27"
     d="m 49.821474,31.941367 c -0.08175,0 -0.163503,-0.04088 -0.245252,-0.08175 -0.08175,-0.08175 -0.163504,-0.204378 -0.163504,-0.327004 v -2.943038 c 0,-0.204379 0.122626,-0.367881 0.327007,-0.408756 l 2.248153,-0.572257 c 0.122627,-0.04088 0.245253,0 0.36788,0.08175 0.08175,0.08175 0.163497,0.204377 0.163497,0.327005 v 3.024789 c 0,0.204378 -0.122627,0.36788 -0.327001,0.408755 L 49.9441,31.941368 c -0.08175,0 -0.08175,0 -0.122626,-1e-6 z m 0.408757,-3.02479 v 2.125528 l 1.43064,-0.327005 v -2.166402 z"
     class="st1" /><path
     style="fill:#ffffff;stroke-width:0.408756"
     id="path29"
     d="m 46.142674,32.799752 c -0.08175,0 -0.163501,-0.04088 -0.245252,-0.08175 -0.08175,-0.08175 -0.163502,-0.204378 -0.163502,-0.327004 v -2.94304 c 0,-0.204378 0.122627,-0.367879 0.327004,-0.408755 l 2.248156,-0.572258 c 0.122627,-0.04088 0.245252,0 0.367879,0.08175 0.08175,0.08175 0.163504,0.204377 0.163504,0.327004 v 2.983914 c 0,0.204378 -0.122628,0.36788 -0.327008,0.408756 l -2.248153,0.531381 c -0.04088,0 -0.08175,0 -0.122628,10e-7 z m 0.408757,-3.024789 v 2.125528 l 1.430641,-0.327004 v -2.125528 z"
     class="st1" /><path
     style="fill:#ffffff;stroke-width:0.408756"
     id="path31"
     d="m 40.910607,31.491736 c -0.08175,0 -0.163503,-0.04088 -0.204378,-0.08175 -0.08175,-0.08175 -0.163502,-0.163502 -0.163502,-0.286129 v -1.798522 c 0,-0.163504 0.08175,-0.28613 0.245253,-0.327005 l 2.697786,-0.981013 c 0.122627,-0.04088 0.245252,-0.04088 0.327004,0.04088 0.08175,0.08175 0.163502,0.163502 0.163502,0.286129 v 1.880275 c 0,0.163502 -0.08175,0.286128 -0.245254,0.327004 l -2.697784,0.899261 c -0.04088,0.04088 -0.08175,0.04088 -0.122628,0.04088 z m 0.367879,-1.921151 v 1.062764 l 2.002902,-0.654008 v -1.10364 z"
     class="st1" /><path
     style="fill:#ffffff;stroke-width:0.408756"
     id="path33"
     d="m 38.989456,35.456662 c -0.08175,-0.08175 -0.122627,-0.163501 -0.122627,-0.286129 v -1.839399 c 0,-0.163502 0.122627,-0.286128 0.245254,-0.327004 l 2.575158,-0.694885 c 0.122626,-0.04088 0.204378,0 0.327004,0.04088 0.08175,0.08175 0.122628,0.163503 0.122628,0.286129 v 1.92115 c 0,0.163503 -0.122628,0.327004 -0.286129,0.327004 l -2.575159,0.613134 c -0.04088,0.04088 -0.245253,0 -0.286129,-0.04088 z m 0.572259,-1.839398 v 1.103639 l 1.880275,-0.449631 v -1.18539 z"
     class="st1" /><path
     style="fill:#ffffff;stroke-width:0.408756"
     id="path35"
     d="m 46.142674,27.363306 c -0.08175,0 -0.163501,-0.04088 -0.245252,-0.08175 -0.08175,-0.08175 -0.163502,-0.204377 -0.163502,-0.327004 V 24.13414 c 0,-0.163502 0.122627,-0.327004 0.286129,-0.36788 l 2.248153,-0.817511 c 0.122627,-0.04088 0.245253,-0.04088 0.367879,0.04088 0.122627,0.08175 0.163504,0.204378 0.163504,0.327004 v 3.02479 c 0,0.204377 -0.122627,0.327003 -0.28613,0.408755 l -2.248153,0.613133 c -0.04088,0 -0.08175,0 -0.122628,1e-6 z m 0.408757,-2.943038 v 2.002901 l 1.430641,-0.408755 v -2.125527 z"
     class="st1" /><path
     style="fill:#ffffff;stroke-width:0.408756"
     id="path37"
     d="m 35.964668,35.906292 c -0.531382,0 -0.940138,-0.490506 -0.940138,-1.062763 0,-0.572257 0.408756,-1.062763 0.940138,-1.062763 0.531381,0 0.940137,0.490506 0.940137,1.062763 0,0.572257 -0.408756,1.062763 -0.940137,1.062763 z m 0,-1.553269 c -0.204378,0 -0.36788,0.204377 -0.36788,0.490506 0,0.286129 0.163502,0.490508 0.36788,0.490508 0.204376,0 0.36788,-0.204379 0.36788,-0.490508 0,-0.286129 -0.163504,-0.490506 -0.36788,-0.490506 z"
     class="st1" /><path
     style="fill:#ffffff;stroke-width:0.408756"
     id="path41"
     d="m 44.712029,21.518109 c -0.122626,0.08175 -0.245252,0.204377 -0.245252,0.367879 v 2.329906 l -6.744463,4.005802 c -0.122628,0.04088 -0.204378,0.204378 -0.204378,0.327005 l -0.04088,1.962025 -3.678798,2.166404 c -0.204377,0.122627 -0.122628,0.408756 -0.122628,0.613133 v 4.455431 l -1.553267,-0.572255 c -0.08175,-0.04088 -0.204377,-0.04088 -0.286128,0 l -1.389768,0.572255 v -4.455431 c 0,-0.245253 0.04088,-0.449632 -0.163503,-0.572257 l -3.678797,-2.166404 -0.04088,-1.962025 c 0,-0.122628 -0.08175,-0.245254 -0.204378,-0.327005 L 19.65532,24.297645 v -2.411657 c 0,-0.163502 -0.08175,-0.286127 -0.245252,-0.367879 l -8.624736,-3.842304 h -0.04088 l -0.572257,-0.327004 v 0.981013 28.285868 0.817512 h 0.36788 c 0.122628,0 0.204378,-0.04088 0.327004,-0.122627 0.122627,-0.08175 21.132652,-9.278746 21.132652,-9.278746 0,0 21.377905,9.360497 21.500532,9.401373 0.122626,0.04088 0.44963,0 0.44963,0 V 46.615682 18.329814 17.471427 L 50.23022,19.106449 Z M 16.589664,43.836146 13.442249,45.225915 V 35.088782 l 3.147415,0.572258 z m 2.20728,-17.903483 v 16.881595 l -1.389768,0.613133 v -8.093354 c 0,-0.204379 -0.122628,-0.367881 -0.327006,-0.408757 l -3.964927,-0.694884 c -0.122626,-0.04088 -0.245251,0 -0.327003,0.08175 -0.122627,0.08175 -0.163503,0.204377 -0.163503,0.327003 v 10.913768 l -1.63502,0.735762 v -27.63186 l 7.357597,3.270041 0.44963,0.245255 z m 0.858386,-0.694885 2.902162,1.716773 -2.902162,-1.267142 z m 2.207278,11.322523 1.716773,0.245255 0.04087,3.883175 -1.716771,0.735759 z m 3.801425,-4.741561 v 0.163502 7.807227 l -1.389768,0.613133 -0.04088,-3.883176 c 0,-0.204376 -0.122627,-0.327004 -0.286129,-0.36788 L 21.5356,35.783667 c -0.122627,0 -0.204378,0 -0.286129,0.08175 -0.08175,0.08175 -0.122627,0.163502 -0.122627,0.286129 l 0.04088,5.599948 -1.512395,0.654008 V 26.545796 l 6.008703,2.656909 z m 0.817511,-0.36788 0.735759,0.449631 -0.735759,-0.245254 z m 2.043776,7.112344 -0.694884,0.327003 v -1.92115 l 0.694884,0.08175 z m 1.103639,-0.490507 -0.531382,0.204377 v -1.55327 c 0,-0.163503 -0.122626,-0.286129 -0.286128,-0.286129 l -1.267142,-0.08175 c -0.08175,0 -0.163502,0.04088 -0.204377,0.08175 -0.04088,0.04088 -0.08175,0.122627 -0.08175,0.204378 v 2.493407 l -0.776634,0.327005 V 32.5545 l 3.147415,1.062764 z m 6.662713,0.735758 -0.694884,-0.327003 v -1.512395 l 0.694884,-0.04088 z m 1.348893,0.613134 -0.817511,-0.367879 v -2.411657 c 0,-0.08175 -0.04088,-0.163502 -0.08175,-0.204378 -0.04087,-0.04088 -0.122627,-0.08175 -0.204377,-0.08175 l -1.267142,0.08175 c -0.163502,0 -0.286129,0.122627 -0.286129,0.286129 v 1.512395 l -0.490507,-0.204378 v -4.496309 l 3.147418,-1.021888 z m 0,-7.725476 -1.389769,0.44963 1.389769,-0.817509 z m 4.455433,9.687501 -1.716773,-0.776635 0.04088,-3.924051 1.716771,-0.245253 z m 2.37078,1.062765 -1.675897,-0.73576 0.04088,-5.640825 c 0,-0.122627 -0.04088,-0.204376 -0.122627,-0.286127 -0.08175,-0.08175 -0.163502,-0.08175 -0.286128,-0.08175 l -2.411657,0.367878 c -0.163502,0.04088 -0.286128,0.20438 -0.286128,0.367881 l -0.04088,3.883175 -1.226268,-0.531381 v -7.807228 -2.779536 l 6.008704,-2.656909 z m 0,-16.75897 -3.515296,1.553271 3.515296,-2.084652 z m 2.902161,18.107861 v -8.256858 l 3.147416,-0.531381 V 45.144163 Z M 53.091517,18.697693 V 46.329554 L 51.333869,45.552919 V 34.5574 c 0,-0.122627 -0.08175,-0.245252 -0.163505,-0.327004 -0.08175,-0.08175 -0.204375,-0.122627 -0.327,-0.08175 l -3.964928,0.694884 c -0.20438,0.04088 -0.327005,0.204377 -0.327005,0.408756 v 8.175106 L 45.325165,42.89601 45.284285,22.21299 Z"
     class="st1" /></g><path
   style="fill:#ffffff;stroke-width:0.408756"
   id="path51"
   d="m 57.710451,23.191101 c -1.267141,0 -2.28903,-1.021889 -2.28903,-2.28903 v -8.134232 h -9.728377 c -1.267142,0 -2.28903,-1.021888 -2.28903,-2.289028 0,-1.2671415 1.021888,-2.2890304 2.28903,-2.2890304 h 12.017407 c 1.267142,0 2.289032,1.0218889 2.289032,2.2890304 v 10.42326 c 0,1.267141 -1.02189,2.28903 -2.289032,2.28903 z"
   class="st1" /><path
   style="fill:#ffffff;stroke-width:0.408756"
   id="path55"
   d="M 18.306438,55.809779 H 6.2890304 c -1.2671414,0 -2.2890303,-1.021889 -2.2890303,-2.289033 v -10.42326 c 0,-1.267143 1.0218889,-2.289031 2.2890303,-2.289031 1.2671414,0 2.2890303,1.021888 2.2890303,2.289031 v 8.13423 h 9.7283773 c 1.26714,0 2.289029,1.021889 2.289029,2.28903 0,1.267144 -1.021889,2.289033 -2.289029,2.289033 z"
   class="st1" /><path
   style="fill:#ffffff;stroke-width:0.408756"
   id="path59"
   d="m 6.2890304,23.191101 c -1.2671414,0 -2.2890303,-1.021889 -2.2890303,-2.28903 v -10.42326 c 0,-1.2671415 1.0218889,-2.2890304 2.2890303,-2.2890304 H 18.306438 c 1.26714,0 2.289029,1.0218889 2.289029,2.2890304 0,1.26714 -1.021889,2.289028 -2.289029,2.289028 H 8.5780607 v 8.134232 c 0,1.267141 -1.0218889,2.28903 -2.2890303,2.28903 z"
   class="st1" /><path
   style="fill:#ffffff;stroke-width:0.408756"
   id="path63"
   d="M 57.710451,55.809779 H 45.693044 c -1.267142,0 -2.28903,-1.021889 -2.28903,-2.289033 0,-1.267141 1.021888,-2.28903 2.28903,-2.28903 h 9.728377 v -8.13423 c 0,-1.267143 1.021889,-2.289031 2.28903,-2.289031 1.267142,0 2.289032,1.021888 2.289032,2.289031 v 10.42326 c 0,1.267144 -1.02189,2.289033 -2.289032,2.289033 z"
   class="st1" /></svg>
